<?xml version="1.0" standalone="no"?><!DOCTYPE svg PUBLIC "-//W3C//DTD SVG 1.1//EN" "http://www.w3.org/Graphics/SVG/1.1/DTD/svg11.dtd"><svg t="1724158113536" class="icon" viewBox="0 0 1740 1024" version="1.1" xmlns="http://www.w3.org/2000/svg" p-id="4635" xmlns:xlink="http://www.w3.org/1999/xlink" width="339.84375" height="200"><path d="M726.665434 337.802546l17.976489-49.084437s-55.108823-0.290006-58.35302-0.603212-33.601998 3.839676-77.721537 40.689738a352.67404 352.67404 0 0 0-71.020471 82.319094c-4.435154 10.417006 1.767102 35.295631 21.820032 37.356605 19.998795 2.130575 610.902879-16.139786 610.902878-16.139786l7.671619-21.522292-524.330367 10.722479 32.403307-83.444317z" fill="#409EFF" p-id="4636"></path><path d="M893.352997 293.814476l-139.276221-5.916117-37.921149 115.410682 56.431249-0.525877 12.13384-32.093968 27.194804 31.668626h39.966657l8.224562-19.557987h-23.838471l-10.989284-14.500286 41.184681-0.943486z m-49.393777 44.467546l-48.720963-0.201071 9.666858-21.182019h46.984795z" fill="#409EFF" p-id="4637"></path><path d="M907.613545 293.601805l-40.005324 107.035316h140.74945l12.373578-32.093967h-80.536526l17.044604-44.038338h81.27894l11.45716-25.907179z" fill="#409EFF" p-id="4638"></path><path d="M1063.095286 300.008998l149.786029 2.86139-7.733487 23.76887h-87.531464l-16.36019 41.393485 91.065667-0.68828-12.373578 32.561844h-154.28305z" fill="#409EFF" p-id="4639"></path><path d="M880.418741 131.469266c-200.382362 0-363.408119 109.691769-363.408119 244.556035s163.025757 244.447767 363.408119 244.447767c200.448097 0 363.473853-109.602834 363.473853-244.447767S1080.866838 131.469266 880.418741 131.469266z m280.632749 96.76138q-35.3923 11.016351-71.148074 18.432764a246.381138 246.381138 0 0 0-78.881559-78.077277 244.068826 244.068826 0 0 0 17.013669-9.964597c52.193299 15.900048 97.801534 39.850655 133.012097 69.60911z m-77.300062 19.685589a901.132884 901.132884 0 0 1-85.513024 12.825987 272.709792 272.709792 0 0 0-32.480642-72.667703 271.016159 271.016159 0 0 0 39.228109-16.317656 241.079833 241.079833 0 0 1 78.76169 76.163239z m-63.364319-91.514209c-5.065433 3.151396-10.161801 5.974118-15.215635 8.700172a242.193455 242.193455 0 0 0-51.860758-22.72485 479.452946 479.452946 0 0 1 67.076393 14.024678z m-21.472025 11.874768a266.19433 266.19433 0 0 1-36.56779 14.716824c-13.862274-19.685589-29.855124-34.530016-47.267068-43.129653a240.198216 240.198216 0 0 1 83.850325 28.412829z m-116.667373-30.852743c27.883085 0.726948 53.678128 18.193026 74.527606 47.317335a249.300529 249.300529 0 0 1-74.527606 9.836995z m0 63.027912c1.585365 0.054134 3.093394 0.108269 4.640091 0.108269a253.569414 253.569414 0 0 0 73.305716-10.745679 260.479284 260.479284 0 0 1 32.252505 71.469013 1053.33176 1053.33176 0 0 1-110.202179 4.53569z m-79.805712-13.278396a282.299315 282.299315 0 0 0 74.817613 13.185595v65.456227a1254.564805 1254.564805 0 0 1-108.268807-6.356926 257.188685 257.188685 0 0 1 33.447328-72.296496z m-39.239709 71.724219c-32.190636-3.441401-61.021073-7.733486-85.389288-12.041038a242.251456 242.251456 0 0 1 81.44521-76.986856 301.296624 301.296624 0 0 0 37.654345 15.536574 267.543823 267.543823 0 0 0-33.714134 73.479719z m42.777779-76.727784c20.2076-27.067202 44.757552-43.48926 71.275676-44.637683v56.930059a278.123232 278.123232 0 0 1-71.275676-12.292376z m-5.575843-1.782569a295.0325 295.0325 0 0 1-35.021093-14.078811 241.315705 241.315705 0 0 1 80.40119-26.444657 126.829174 126.829174 0 0 0-45.380097 40.523468z m7.130274-38.010085a247.885301 247.885301 0 0 0-48.500559 20.818545 190.406165 190.406165 0 0 1-14.326283-7.996424 506.45828 506.45828 0 0 1 62.819109-12.822121z m-70.479127 15.041631c2.594585 1.678167 8.004158 5.026766 15.938715 9.195115a247.958769 247.958769 0 0 0-81.387209 79.132898c-37.720079-6.770667-63.824462-13.289996-73.731058-15.853647 36.478855-31.309019 84.2718-56.369381 139.175685-72.474366z m-139.705429 364.247202c9.446453-2.497916 35.643638-9.086846 73.885728-15.992849a247.858234 247.858234 0 0 0 81.92082 79.828911c-7.76442 4.06008-13.243595 7.389346-15.911648 9.137114-55.321494-16.18232-103.365777-41.478553-139.898767-72.965442z m374.842078 31.850363h-0.460142c21.611227-43.071652 26.460123-62.030293 26.460123-62.030293v-0.034801c0.046401-0.274539 0.162403-0.529744 0.216538-0.800415 28.262025 2.911658 56.933926 7.080007 85.694761 12.876254a241.373706 241.373706 0 0 1-79.287568 76.839919 271.101227 271.101227 0 0 0-39.077306-16.298322c2.234978-3.3834 4.311419-6.92147 6.449728-10.544608z m19.476785-60.321192a628.964436 628.964436 0 0 1-27.303073 62.397633c-1.411361 2.277512-2.768588 4.555023-4.207016 6.7552a255.59172 255.59172 0 0 0-77.911007-10.668344h-0.054135v-56.562718h0.054135v-9.601123a1054.936458 1054.936458 0 0 1 110.422583 4.613024c-0.313206 1.001486-0.634146 2.060974-1.005353 3.077928z m-114.409195-2.66032v61.311079a284.047083 284.047083 0 0 0-74.763478 13.146927c-1.059488-1.546697-2.045507-3.162996-3.093395-4.825696a646.496249 646.496249 0 0 1-29.344713-64.145401c-0.471743-1.380427-0.939619-2.70672-1.291493-4.060081 33.184389-3.480069 69.825647-5.846516 108.473745-6.372392z m-86.035034 66.968124c-0.034801 0-0.034801 0-0.092802 0.058002 1.933372 3.116595 3.866743 6.225456 5.838782 9.195115a300.105667 300.105667 0 0 0-37.573143 15.524973 241.41624 241.41624 0 0 1-81.955621-77.698336 1292.899697 1292.899697 0 0 1 85.547825-12.095172c0.212671 0.711481 0.425342 1.33016 0.622546 1.968172s4.396487 18.691836 27.604679 63.058847z m-46.300383 39.266777a241.713979 241.713979 0 0 1 14.279883-7.880423 247.796366 247.796366 0 0 0 48.334289 20.756677 486.165613 486.165613 0 0 1-62.618038-12.864654z m20.625208-11.020218a299.633924 299.633924 0 0 1 34.901224-14.016944 127.076646 127.076646 0 0 0 45.337563 40.376532 240.758894 240.758894 0 0 1-80.242654-26.347988z m40.600803-15.822713a279.782065 279.782065 0 0 1 71.124873-12.218908V614.475749c-26.498791-1.179357-51.041009-17.477679-71.144207-44.541014z m76.112972-12.373578a249.111059 249.111059 0 0 1 74.419338 9.867928c-20.857212 29.035374-46.586521 46.439585-74.419338 47.120132z m79.987448 11.580896a256.983748 256.983748 0 0 1 36.474988 14.66269 240.426354 240.426354 0 0 1-83.626054 28.300692c17.323009-8.502968 33.331326-23.312594 47.131732-42.947915z m-8.947644 40.519601a247.831167 247.831167 0 0 0 51.682889-22.616581c5.026766 2.637119 10.127 5.502375 15.223367 8.607371a501.129908 501.129908 0 0 1-66.906256 14.00921z m74.469606-16.278989q-8.506835-5.297438-16.920868-9.833127a248.631583 248.631583 0 0 0 79.395837-78.750091q35.775107 7.482148 71.364611 18.537167c-35.353632 29.944059-81.217073 54.184671-133.831847 70.046051z m139.07515-74.628142a750.762978 750.762978 0 0 0-73.359851-19.267981 241.984651 241.984651 0 0 0 22.608847-50.430064l-5.374773-2.21951a237.081621 237.081621 0 0 1-23.227526 51.392883 912.23817 912.23817 0 0 0-87.492796-13.328664c3.074061-11.182621 5.633845-22.94912 7.760553-35.055893l-5.831048-0.127603a383.86319 383.86319 0 0 1-7.663885 34.657619 1071.157446 1071.157446 0 0 0-112.023415-4.717427v-29.924725h-4.988099v29.97886a1223.379522 1223.379522 0 0 0-110.144178 6.499995 377.664801 377.664801 0 0 1-7.818554-34.510682l-5.668646 0.68828a364.761479 364.761479 0 0 0 7.756687 34.390813 1339.799424 1339.799424 0 0 0-87.388394 12.404512 234.645573 234.645573 0 0 1-21.495225-45.349163l-4.810229 3.866743a245.491787 245.491787 0 0 0 20.2192 42.673377c-45.739704 8.286431-73.83546 16.116585-75.788165 16.626995-43.566595-39.541315-69.29977-88.328013-69.29977-140.98532 0-0.943485 0.054134-1.914038 0.054134-2.857524h29.797122v-5.865849h-29.592185c2.660319-49.594847 28.130556-95.322951 69.551109-132.753025 4.551157 1.221891 32.217704 8.673105 75.614162 16.626996a236.412674 236.412674 0 0 0-17.50088 35.187362 15.923248 15.923248 0 0 0 5.765314 1.160023 227.503698 227.503698 0 0 1 17.875954-35.187362 1328.651604 1328.651604 0 0 0 87.222124 12.33491c-1.415228 4.968765-2.668053 10.034198-3.917011 15.115099h5.881317c1.160023-4.899164 2.401247-9.78286 3.762341-14.500287 33.598131 3.387267 70.711131 5.958651 109.93924 6.445861v15.103499h4.988099V271.716039c3.460735 0.058001 6.936937 0.112136 10.440206 0.112136 32.68558 0 66.701319-1.419095 101.397605-4.752228a286.823404 286.823404 0 0 1 4.477689 18.34383l5.517842-1.712968q-1.933372-8.765907-4.21475-17.249541a882.413981 882.413981 0 0 0 87.276259-13.181727 231.861518 231.861518 0 0 1 17.558881 34.963091l5.471441-1.724567a236.064668 236.064668 0 0 0-17.04847-34.491349 768.27159 768.27159 0 0 0 73.212914-19.202246c42.580575 37.75488 68.76616 84.202198 71.534748 134.520126h-30.547271v5.881317h30.744475c0 0.947352 0.046401 1.933372 0.0464 2.857523-0.0116 53.399722-26.525858 102.8283-71.275676 142.678954z" fill="#409EFF" p-id="4640"></path><path d="M436.941973 778.01965V699.261826h80.745329v-32.322106h31.084748v32.306639h82.945507v79.055563h-31.425021v-2.981259h-51.520486v56.728988h-31.084748v-56.748322h-50.348862v2.706721z m30.384867-24.801291h50.360462v-31.707293h-50.348862z m132.965696 0v-31.707293h-51.520486v31.707293z" fill="#409EFF" p-id="4641"></path><path d="M660.70653 673.621452h193.959702v156.560562h-28.192424v-3.619271h-138.150998v2.405114h-27.61628v-155.346405z m27.61628 134.319056h138.150998v-114.842271h-138.150998z m3.820342-28.227225h51.969027v-23.154058h-43.083251v-18.305161h43.083251v-16.240322h-48.980035v-18.869706h125.812221v18.869706h-49.672182v16.240322h43.087119v18.305161h-17.094872c2.300712 2.064841 18.947041 14.461619 18.947042 14.46162l-10.625811 8.692438h17.094872v18.104092h-130.537381z m101.420805 0c-1.388161-1.457762-19.407184-15.443772-19.407184-15.443772l12.818254-7.706419h-15.702844v23.150191z" fill="#409EFF" p-id="4642"></path><path d="M922.280102 671.490877q-3.592204 8.166561-7.161208 16.302189h20.107064l18.254894-0.417608v18.869706l-19.987195-0.417608-29.344713-0.088935a277.214548 277.214548 0 0 1-10.861682 15.439905h42.866714l13.978277-0.452409v18.629968l-13.978277-0.359607h-10.312603v15.629376h11.089819l17.102605-0.386674v19.72039l-16.626996-0.344141h-11.565428v26.09665c4.767694-1.546697 9.137114-3.062461 13.112125-4.497023s10.188868-4.253417 18.653169-8.468167a122.111748 122.111748 0 0 0-0.974419 9.044312 38.311691 38.311691 0 0 0-0.054134 6.469061l0.444675 6.20999q-13.4988 5.053833-24.240613 9.852461t-27.156137 13.30933c-0.846817-2.320046-1.6743-4.442888-2.486315-6.403326s-3.445268-7.138008-7.899757-15.613909a17.736751 17.736751 0 0 0 3.735274-3.132062 7.122541 7.122541 0 0 0 1.453896-4.845029v-28.026154h-14.094279l-18.247161 0.34414v-19.72039l20.787611 0.386674h11.553829v-15.629376h-8.08536l-10.397672 0.359608v-4.860497a96.111767 96.111767 0 0 1-9.705526 6.186789q-5.432774-12.624916-6.925337-14.987496l-3.928611-6.229323c2.320046-1.276025 5.278104-3.20553 8.89351-5.668645s7.988691-8.665371 13.104392-18.606768a82.968707 82.968707 0 0 0 8.963111-22.987788l1.392027-7.980958q9.674591 3.166863 28.540431 7.273344z m35.110028 67.053192l10.734079 0.440809q-8.765907-7.892023-17.199274-14.35335c1.287625-1.016953 3.263531-2.70672 5.896783-5.084768a36.003245 36.003245 0 0 0 7.536283-14.964296 83.181378 83.181378 0 0 0 4.114214-18.107958l0.804283-10.997017c10.320337 1.933372 16.541927 2.985126 18.606768 3.093394l9.345918 0.726948q-2.285245 8.936043-4.485422 17.048471h14.086545v-32.743581h26.572259v32.728114h38.918769v18.173692h-38.914902l-0.572278 24.472617H1084.234771v18.626102h-51.988361a151.263124 151.263124 0 0 0 6.353059 15.880714 88.134676 88.134676 0 0 0 15.424438 20.014262 72.694771 72.694771 0 0 0 22.23764 17.141273l11.546095 5.517842a92.801835 92.801835 0 0 0-12.930389 12.493447l-3.588338 5.077034a328.7505 328.7505 0 0 1-15.466972-9.535389 124.211389 124.211389 0 0 1-12.698385-9.914329 73.615056 73.615056 0 0 1-9.809927-9.852461l-12.373578-14.790293a228.021842 228.021842 0 0 1-7.400947 10.25847 94.302131 94.302131 0 0 1-13.340263 13.088925 116.733108 116.733108 0 0 1-18.88904 13.007724 139.415423 139.415423 0 0 1-21.723363 9.392319c-1.778702-2.091908-3.712073-4.365553-5.838782-6.735867a93.447581 93.447581 0 0 0-11.839968-10.185001q29.48005-7.478281 43.918469-22.233773t16.843533-29.50325l1.747767-9.11778h-47.027329z m49.324175 0.440809l0.928018-24.472617h-20.319735a133.348503 133.348503 0 0 1-6.93307 13.034791l-8.093094 11.437826z" fill="#409EFF" p-id="4643"></path><path d="M1103.699956 809.518139a95.74056 95.74056 0 0 0 14.156146-10.737945 179.138475 179.138475 0 0 1-10.795946-12.512781 58.387821 58.387821 0 0 1-8.731106-15.82658 80.362522 80.362522 0 0 1-3.936345-12.180241l-1.160023-6.140388h24.607953a58.619826 58.619826 0 0 0 1.086555 7.281078 54.62548 54.62548 0 0 0 3.128195 8.201362 29.553518 29.553518 0 0 0 4.342353 7.520815l2.992859 3.518736c0.614812-2.973525 1.098155-5.610644 1.453896-8.031225s0.610945-6.028253 0.800415-10.892615 0.293872-9.430986 0.293873-13.61867v-1.245091h-36.161782v-15.466972c1.465496-0.943485 3.824209-2.656453 7.110941-5.115702s10.181135-12.276909 20.721876-29.356313h-10.962217l-19.41105 0.34414v-19.333716l25.191831 0.162403h36.266184l3.480069 8.506835c-4.864363 8.59577-8.634437 14.902428-11.333424 18.974109l-9.92593 14.388151-4.968765 7.90749h12.698385l13.533601-0.452409c-0.170137 9.392319-0.348007 16.886067-0.591612 22.492844s-0.773349 12.31171-1.670433 20.141865a88.161743 88.161743 0 0 1-3.511003 18.026757l-3.592204 10.66061q16.971136 11.410759 47.533873 13.30933t58.387821 1.326293q27.84055-0.545211 52.201032-3.441401a55.046955 55.046955 0 0 0-5.312905 16.023783l-0.69988 6.666265q-39.827454 1.310826-72.474367 0.746282a442.475282 442.475282 0 0 1-45.627568-2.36258 164.808325 164.808325 0 0 1-23.200459-4.682626 53.020782 53.020782 0 0 1-14.85216-6.121054l-8.433367-5.336106a174.142643 174.142643 0 0 1-14.778692 11.364358l-13.966677 8.247763a19.159712 19.159712 0 0 1-2.204043-1.856037l-7.977091-7.629084-8.781374-6.828668a94.367866 94.367866 0 0 0 15.072565-6.643065z m55.391095-109.015089h51.427684v-7.629084H1166.248393v-16.959535c15.633242 0.893218 30.392601 0.290006 44.262608 0v-8.974711h27.364941v8.959244h49.208173v24.584753h15.138299v17.721283h-15.138299v25.392903h-49.208173v6.662398h49.208173v17.717417h-49.208173v7.733486h59.957719v17.555014h-59.957719v14.372684h-27.372674v-14.372684h-51.427684v-17.555014h51.427684v-7.733486H1166.248393v-17.717417h44.262608v-6.643065H1166.248393v-18.20076h44.262608v-7.192142h-51.427683z m78.781024 0h22.063637v-7.629084h-22.05977z m0 24.913426h22.063637v-7.192142h-22.05977z" fill="#409EFF" p-id="4644"></path></svg>